<?xml version="1.0" encoding="utf-8" standalone="no"?>
<!DOCTYPE svg PUBLIC "-//W3C//DTD SVG 1.1//EN"
  "http://www.w3.org/Graphics/SVG/1.1/DTD/svg11.dtd">
<svg xmlns:xlink="http://www.w3.org/1999/xlink" width="712.69125pt" height="423.034375pt" viewBox="0 0 712.69125 423.034375" xmlns="http://www.w3.org/2000/svg" version="1.1">
 <metadata>
  <rdf:RDF xmlns:dc="http://purl.org/dc/elements/1.1/" xmlns:cc="http://creativecommons.org/ns#" xmlns:rdf="http://www.w3.org/1999/02/22-rdf-syntax-ns#">
   <cc:Work>
    <dc:type rdf:resource="http://purl.org/dc/dcmitype/StillImage"/>
    <dc:date>2025-10-17T10:43:58.466672</dc:date>
    <dc:format>image/svg+xml</dc:format>
    <dc:creator>
     <cc:Agent>
      <dc:title>Matplotlib v3.9.0, https://matplotlib.org/</dc:title>
     </cc:Agent>
    </dc:creator>
   </cc:Work>
  </rdf:RDF>
 </metadata>
 <defs>
  <style type="text/css">*{stroke-linejoin: round; stroke-linecap: butt}</style>
 </defs>
 <g id="figure_1">
  <g id="patch_1">
   <path d="M 0 423.034375 
L 712.69125 423.034375 
L 712.69125 0 
L 0 0 
z
" style="fill: #ffffff"/>
  </g>
  <g id="axes_1">
   <g id="patch_2">
    <path d="M 161.33125 385.478125 
L 705.49125 385.478125 
L 705.49125 22.318125 
L 161.33125 22.318125 
z
" style="fill: #ffffff"/>
   </g>
   <g id="patch_3">
    <path d="M 187.677681 38.825398 
L 680.756705 38.825398 
L 680.756705 65.776047 
L 187.677681 65.776047 
z
" clip-path="url(#pba0e21379d)" style="fill: #4682b4"/>
   </g>
   <g id="patch_4">
    <path d="M 187.677681 72.513709 
L 191.33826 72.513709 
L 191.33826 99.464359 
L 187.677681 99.464359 
z
" clip-path="url(#pba0e21379d)" style="fill: #4682b4"/>
   </g>
   <g id="patch_5">
    <path d="M 187.677681 106.202021 
L 190.77042 106.202021 
L 190.77042 133.15267 
L 187.677681 133.15267 
z
" clip-path="url(#pba0e21379d)" style="fill: #4682b4"/>
   </g>
   <g id="patch_6">
    <path d="M 187.677681 139.890333 
L 189.678915 139.890333 
L 189.678915 166.840982 
L 187.677681 166.840982 
z
" clip-path="url(#pba0e21379d)" style="fill: #4682b4"/>
   </g>
   <g id="patch_7">
    <path d="M 187.677681 173.578644 
L 186.065795 173.578644 
L 186.065795 200.529294 
L 187.677681 200.529294 
z
" clip-path="url(#pba0e21379d)" style="fill: #ff0000"/>
   </g>
   <g id="patch_8">
    <path d="M 187.677681 207.266956 
L 186.242052 207.266956 
L 186.242052 234.217606 
L 187.677681 234.217606 
z
" clip-path="url(#pba0e21379d)" style="fill: #ff0000"/>
   </g>
   <g id="patch_9">
    <path d="M 187.677681 240.955268 
L 186.709884 240.955268 
L 186.709884 267.905917 
L 187.677681 267.905917 
z
" clip-path="url(#pba0e21379d)" style="fill: #ff0000"/>
   </g>
   <g id="patch_10">
    <path d="M 187.677681 274.64358 
L 188.617411 274.64358 
L 188.617411 301.594229 
L 187.677681 301.594229 
z
" clip-path="url(#pba0e21379d)" style="fill: #4682b4"/>
   </g>
   <g id="patch_11">
    <path d="M 187.677681 308.331891 
L 186.905412 308.331891 
L 186.905412 335.282541 
L 187.677681 335.282541 
z
" clip-path="url(#pba0e21379d)" style="fill: #ff0000"/>
   </g>
   <g id="patch_12">
    <path d="M 187.677681 342.020203 
L 187.632298 342.020203 
L 187.632298 368.970852 
L 187.677681 368.970852 
z
" clip-path="url(#pba0e21379d)" style="fill: #ff0000"/>
   </g>
   <g id="matplotlib.axis_1">
    <g id="xtick_1">
     <g id="line2d_1">
      <defs>
       <path id="m4295030d24" d="M 0 0 
L 0 3.5 
" style="stroke: #000000; stroke-width: 0.8"/>
      </defs>
      <g>
       <use xlink:href="#m4295030d24" x="187.677681" y="385.478125" style="stroke: #000000; stroke-width: 0.8"/>
      </g>
     </g>
     <g id="text_1">
      <!-- 0 -->
      <g transform="translate(184.496431 400.076562) scale(0.1 -0.1)">
       <defs>
        <path id="DejaVuSans-30" d="M 2034 4250 
Q 1547 4250 1301 3770 
Q 1056 3291 1056 2328 
Q 1056 1369 1301 889 
Q 1547 409 2034 409 
Q 2525 409 2770 889 
Q 3016 1369 3016 2328 
Q 3016 3291 2770 3770 
Q 2525 4250 2034 4250 
z
M 2034 4750 
Q 2819 4750 3233 4129 
Q 3647 3509 3647 2328 
Q 3647 1150 3233 529 
Q 2819 -91 2034 -91 
Q 1250 -91 836 529 
Q 422 1150 422 2328 
Q 422 3509 836 4129 
Q 1250 4750 2034 4750 
z
" transform="scale(0.015625)"/>
       </defs>
       <use xlink:href="#DejaVuSans-30"/>
      </g>
     </g>
    </g>
    <g id="xtick_2">
     <g id="line2d_2">
      <g>
       <use xlink:href="#m4295030d24" x="278.907562" y="385.478125" style="stroke: #000000; stroke-width: 0.8"/>
      </g>
     </g>
     <g id="text_2">
      <!-- 200 -->
      <g transform="translate(269.363812 400.076562) scale(0.1 -0.1)">
       <defs>
        <path id="DejaVuSans-32" d="M 1228 531 
L 3431 531 
L 3431 0 
L 469 0 
L 469 531 
Q 828 903 1448 1529 
Q 2069 2156 2228 2338 
Q 2531 2678 2651 2914 
Q 2772 3150 2772 3378 
Q 2772 3750 2511 3984 
Q 2250 4219 1831 4219 
Q 1534 4219 1204 4116 
Q 875 4013 500 3803 
L 500 4441 
Q 881 4594 1212 4672 
Q 1544 4750 1819 4750 
Q 2544 4750 2975 4387 
Q 3406 4025 3406 3419 
Q 3406 3131 3298 2873 
Q 3191 2616 2906 2266 
Q 2828 2175 2409 1742 
Q 1991 1309 1228 531 
z
" transform="scale(0.015625)"/>
       </defs>
       <use xlink:href="#DejaVuSans-32"/>
       <use xlink:href="#DejaVuSans-30" x="63.623047"/>
       <use xlink:href="#DejaVuSans-30" x="127.246094"/>
      </g>
     </g>
    </g>
    <g id="xtick_3">
     <g id="line2d_3">
      <g>
       <use xlink:href="#m4295030d24" x="370.137442" y="385.478125" style="stroke: #000000; stroke-width: 0.8"/>
      </g>
     </g>
     <g id="text_3">
      <!-- 400 -->
      <g transform="translate(360.593692 400.076562) scale(0.1 -0.1)">
       <defs>
        <path id="DejaVuSans-34" d="M 2419 4116 
L 825 1625 
L 2419 1625 
L 2419 4116 
z
M 2253 4666 
L 3047 4666 
L 3047 1625 
L 3713 1625 
L 3713 1100 
L 3047 1100 
L 3047 0 
L 2419 0 
L 2419 1100 
L 313 1100 
L 313 1709 
L 2253 4666 
z
" transform="scale(0.015625)"/>
       </defs>
       <use xlink:href="#DejaVuSans-34"/>
       <use xlink:href="#DejaVuSans-30" x="63.623047"/>
       <use xlink:href="#DejaVuSans-30" x="127.246094"/>
      </g>
     </g>
    </g>
    <g id="xtick_4">
     <g id="line2d_4">
      <g>
       <use xlink:href="#m4295030d24" x="461.367323" y="385.478125" style="stroke: #000000; stroke-width: 0.8"/>
      </g>
     </g>
     <g id="text_4">
      <!-- 600 -->
      <g transform="translate(451.823573 400.076562) scale(0.1 -0.1)">
       <defs>
        <path id="DejaVuSans-36" d="M 2113 2584 
Q 1688 2584 1439 2293 
Q 1191 2003 1191 1497 
Q 1191 994 1439 701 
Q 1688 409 2113 409 
Q 2538 409 2786 701 
Q 3034 994 3034 1497 
Q 3034 2003 2786 2293 
Q 2538 2584 2113 2584 
z
M 3366 4563 
L 3366 3988 
Q 3128 4100 2886 4159 
Q 2644 4219 2406 4219 
Q 1781 4219 1451 3797 
Q 1122 3375 1075 2522 
Q 1259 2794 1537 2939 
Q 1816 3084 2150 3084 
Q 2853 3084 3261 2657 
Q 3669 2231 3669 1497 
Q 3669 778 3244 343 
Q 2819 -91 2113 -91 
Q 1303 -91 875 529 
Q 447 1150 447 2328 
Q 447 3434 972 4092 
Q 1497 4750 2381 4750 
Q 2619 4750 2861 4703 
Q 3103 4656 3366 4563 
z
" transform="scale(0.015625)"/>
       </defs>
       <use xlink:href="#DejaVuSans-36"/>
       <use xlink:href="#DejaVuSans-30" x="63.623047"/>
       <use xlink:href="#DejaVuSans-30" x="127.246094"/>
      </g>
     </g>
    </g>
    <g id="xtick_5">
     <g id="line2d_5">
      <g>
       <use xlink:href="#m4295030d24" x="552.597203" y="385.478125" style="stroke: #000000; stroke-width: 0.8"/>
      </g>
     </g>
     <g id="text_5">
      <!-- 800 -->
      <g transform="translate(543.053453 400.076562) scale(0.1 -0.1)">
       <defs>
        <path id="DejaVuSans-38" d="M 2034 2216 
Q 1584 2216 1326 1975 
Q 1069 1734 1069 1313 
Q 1069 891 1326 650 
Q 1584 409 2034 409 
Q 2484 409 2743 651 
Q 3003 894 3003 1313 
Q 3003 1734 2745 1975 
Q 2488 2216 2034 2216 
z
M 1403 2484 
Q 997 2584 770 2862 
Q 544 3141 544 3541 
Q 544 4100 942 4425 
Q 1341 4750 2034 4750 
Q 2731 4750 3128 4425 
Q 3525 4100 3525 3541 
Q 3525 3141 3298 2862 
Q 3072 2584 2669 2484 
Q 3125 2378 3379 2068 
Q 3634 1759 3634 1313 
Q 3634 634 3220 271 
Q 2806 -91 2034 -91 
Q 1263 -91 848 271 
Q 434 634 434 1313 
Q 434 1759 690 2068 
Q 947 2378 1403 2484 
z
M 1172 3481 
Q 1172 3119 1398 2916 
Q 1625 2713 2034 2713 
Q 2441 2713 2670 2916 
Q 2900 3119 2900 3481 
Q 2900 3844 2670 4047 
Q 2441 4250 2034 4250 
Q 1625 4250 1398 4047 
Q 1172 3844 1172 3481 
z
" transform="scale(0.015625)"/>
       </defs>
       <use xlink:href="#DejaVuSans-38"/>
       <use xlink:href="#DejaVuSans-30" x="63.623047"/>
       <use xlink:href="#DejaVuSans-30" x="127.246094"/>
      </g>
     </g>
    </g>
    <g id="xtick_6">
     <g id="line2d_6">
      <g>
       <use xlink:href="#m4295030d24" x="643.827084" y="385.478125" style="stroke: #000000; stroke-width: 0.8"/>
      </g>
     </g>
     <g id="text_6">
      <!-- 1000 -->
      <g transform="translate(631.102084 400.076562) scale(0.1 -0.1)">
       <defs>
        <path id="DejaVuSans-31" d="M 794 531 
L 1825 531 
L 1825 4091 
L 703 3866 
L 703 4441 
L 1819 4666 
L 2450 4666 
L 2450 531 
L 3481 531 
L 3481 0 
L 794 0 
L 794 531 
z
" transform="scale(0.015625)"/>
       </defs>
       <use xlink:href="#DejaVuSans-31"/>
       <use xlink:href="#DejaVuSans-30" x="63.623047"/>
       <use xlink:href="#DejaVuSans-30" x="127.246094"/>
       <use xlink:href="#DejaVuSans-30" x="190.869141"/>
      </g>
     </g>
    </g>
    <g id="text_7">
     <!-- Coefficient Value -->
     <g transform="translate(391.210469 413.754687) scale(0.1 -0.1)">
      <defs>
       <path id="DejaVuSans-43" d="M 4122 4306 
L 4122 3641 
Q 3803 3938 3442 4084 
Q 3081 4231 2675 4231 
Q 1875 4231 1450 3742 
Q 1025 3253 1025 2328 
Q 1025 1406 1450 917 
Q 1875 428 2675 428 
Q 3081 428 3442 575 
Q 3803 722 4122 1019 
L 4122 359 
Q 3791 134 3420 21 
Q 3050 -91 2638 -91 
Q 1578 -91 968 557 
Q 359 1206 359 2328 
Q 359 3453 968 4101 
Q 1578 4750 2638 4750 
Q 3056 4750 3426 4639 
Q 3797 4528 4122 4306 
z
" transform="scale(0.015625)"/>
       <path id="DejaVuSans-6f" d="M 1959 3097 
Q 1497 3097 1228 2736 
Q 959 2375 959 1747 
Q 959 1119 1226 758 
Q 1494 397 1959 397 
Q 2419 397 2687 759 
Q 2956 1122 2956 1747 
Q 2956 2369 2687 2733 
Q 2419 3097 1959 3097 
z
M 1959 3584 
Q 2709 3584 3137 3096 
Q 3566 2609 3566 1747 
Q 3566 888 3137 398 
Q 2709 -91 1959 -91 
Q 1206 -91 779 398 
Q 353 888 353 1747 
Q 353 2609 779 3096 
Q 1206 3584 1959 3584 
z
" transform="scale(0.015625)"/>
       <path id="DejaVuSans-65" d="M 3597 1894 
L 3597 1613 
L 953 1613 
Q 991 1019 1311 708 
Q 1631 397 2203 397 
Q 2534 397 2845 478 
Q 3156 559 3463 722 
L 3463 178 
Q 3153 47 2828 -22 
Q 2503 -91 2169 -91 
Q 1331 -91 842 396 
Q 353 884 353 1716 
Q 353 2575 817 3079 
Q 1281 3584 2069 3584 
Q 2775 3584 3186 3129 
Q 3597 2675 3597 1894 
z
M 3022 2063 
Q 3016 2534 2758 2815 
Q 2500 3097 2075 3097 
Q 1594 3097 1305 2825 
Q 1016 2553 972 2059 
L 3022 2063 
z
" transform="scale(0.015625)"/>
       <path id="DejaVuSans-66" d="M 2375 4863 
L 2375 4384 
L 1825 4384 
Q 1516 4384 1395 4259 
Q 1275 4134 1275 3809 
L 1275 3500 
L 2222 3500 
L 2222 3053 
L 1275 3053 
L 1275 0 
L 697 0 
L 697 3053 
L 147 3053 
L 147 3500 
L 697 3500 
L 697 3744 
Q 697 4328 969 4595 
Q 1241 4863 1831 4863 
L 2375 4863 
z
" transform="scale(0.015625)"/>
       <path id="DejaVuSans-69" d="M 603 3500 
L 1178 3500 
L 1178 0 
L 603 0 
L 603 3500 
z
M 603 4863 
L 1178 4863 
L 1178 4134 
L 603 4134 
L 603 4863 
z
" transform="scale(0.015625)"/>
       <path id="DejaVuSans-63" d="M 3122 3366 
L 3122 2828 
Q 2878 2963 2633 3030 
Q 2388 3097 2138 3097 
Q 1578 3097 1268 2742 
Q 959 2388 959 1747 
Q 959 1106 1268 751 
Q 1578 397 2138 397 
Q 2388 397 2633 464 
Q 2878 531 3122 666 
L 3122 134 
Q 2881 22 2623 -34 
Q 2366 -91 2075 -91 
Q 1284 -91 818 406 
Q 353 903 353 1747 
Q 353 2603 823 3093 
Q 1294 3584 2113 3584 
Q 2378 3584 2631 3529 
Q 2884 3475 3122 3366 
z
" transform="scale(0.015625)"/>
       <path id="DejaVuSans-6e" d="M 3513 2113 
L 3513 0 
L 2938 0 
L 2938 2094 
Q 2938 2591 2744 2837 
Q 2550 3084 2163 3084 
Q 1697 3084 1428 2787 
Q 1159 2491 1159 1978 
L 1159 0 
L 581 0 
L 581 3500 
L 1159 3500 
L 1159 2956 
Q 1366 3272 1645 3428 
Q 1925 3584 2291 3584 
Q 2894 3584 3203 3211 
Q 3513 2838 3513 2113 
z
" transform="scale(0.015625)"/>
       <path id="DejaVuSans-74" d="M 1172 4494 
L 1172 3500 
L 2356 3500 
L 2356 3053 
L 1172 3053 
L 1172 1153 
Q 1172 725 1289 603 
Q 1406 481 1766 481 
L 2356 481 
L 2356 0 
L 1766 0 
Q 1100 0 847 248 
Q 594 497 594 1153 
L 594 3053 
L 172 3053 
L 172 3500 
L 594 3500 
L 594 4494 
L 1172 4494 
z
" transform="scale(0.015625)"/>
       <path id="DejaVuSans-20" transform="scale(0.015625)"/>
       <path id="DejaVuSans-56" d="M 1831 0 
L 50 4666 
L 709 4666 
L 2188 738 
L 3669 4666 
L 4325 4666 
L 2547 0 
L 1831 0 
z
" transform="scale(0.015625)"/>
       <path id="DejaVuSans-61" d="M 2194 1759 
Q 1497 1759 1228 1600 
Q 959 1441 959 1056 
Q 959 750 1161 570 
Q 1363 391 1709 391 
Q 2188 391 2477 730 
Q 2766 1069 2766 1631 
L 2766 1759 
L 2194 1759 
z
M 3341 1997 
L 3341 0 
L 2766 0 
L 2766 531 
Q 2569 213 2275 61 
Q 1981 -91 1556 -91 
Q 1019 -91 701 211 
Q 384 513 384 1019 
Q 384 1609 779 1909 
Q 1175 2209 1959 2209 
L 2766 2209 
L 2766 2266 
Q 2766 2663 2505 2880 
Q 2244 3097 1772 3097 
Q 1472 3097 1187 3025 
Q 903 2953 641 2809 
L 641 3341 
Q 956 3463 1253 3523 
Q 1550 3584 1831 3584 
Q 2591 3584 2966 3190 
Q 3341 2797 3341 1997 
z
" transform="scale(0.015625)"/>
       <path id="DejaVuSans-6c" d="M 603 4863 
L 1178 4863 
L 1178 0 
L 603 0 
L 603 4863 
z
" transform="scale(0.015625)"/>
       <path id="DejaVuSans-75" d="M 544 1381 
L 544 3500 
L 1119 3500 
L 1119 1403 
Q 1119 906 1312 657 
Q 1506 409 1894 409 
Q 2359 409 2629 706 
Q 2900 1003 2900 1516 
L 2900 3500 
L 3475 3500 
L 3475 0 
L 2900 0 
L 2900 538 
Q 2691 219 2414 64 
Q 2138 -91 1772 -91 
Q 1169 -91 856 284 
Q 544 659 544 1381 
z
M 1991 3584 
L 1991 3584 
z
" transform="scale(0.015625)"/>
      </defs>
      <use xlink:href="#DejaVuSans-43"/>
      <use xlink:href="#DejaVuSans-6f" x="69.824219"/>
      <use xlink:href="#DejaVuSans-65" x="131.005859"/>
      <use xlink:href="#DejaVuSans-66" x="192.529297"/>
      <use xlink:href="#DejaVuSans-66" x="227.734375"/>
      <use xlink:href="#DejaVuSans-69" x="262.939453"/>
      <use xlink:href="#DejaVuSans-63" x="290.722656"/>
      <use xlink:href="#DejaVuSans-69" x="345.703125"/>
      <use xlink:href="#DejaVuSans-65" x="373.486328"/>
      <use xlink:href="#DejaVuSans-6e" x="435.009766"/>
      <use xlink:href="#DejaVuSans-74" x="498.388672"/>
      <use xlink:href="#DejaVuSans-20" x="537.597656"/>
      <use xlink:href="#DejaVuSans-56" x="569.384766"/>
      <use xlink:href="#DejaVuSans-61" x="630.042969"/>
      <use xlink:href="#DejaVuSans-6c" x="691.322266"/>
      <use xlink:href="#DejaVuSans-75" x="719.105469"/>
      <use xlink:href="#DejaVuSans-65" x="782.484375"/>
     </g>
    </g>
   </g>
   <g id="matplotlib.axis_2">
    <g id="ytick_1">
     <g id="line2d_7">
      <defs>
       <path id="m58c22b6f17" d="M 0 0 
L -3.5 0 
" style="stroke: #000000; stroke-width: 0.8"/>
      </defs>
      <g>
       <use xlink:href="#m58c22b6f17" x="161.33125" y="52.300722" style="stroke: #000000; stroke-width: 0.8"/>
      </g>
     </g>
     <g id="text_8">
      <!-- close -->
      <g transform="translate(128.573437 56.099941) scale(0.1 -0.1)">
       <defs>
        <path id="DejaVuSans-73" d="M 2834 3397 
L 2834 2853 
Q 2591 2978 2328 3040 
Q 2066 3103 1784 3103 
Q 1356 3103 1142 2972 
Q 928 2841 928 2578 
Q 928 2378 1081 2264 
Q 1234 2150 1697 2047 
L 1894 2003 
Q 2506 1872 2764 1633 
Q 3022 1394 3022 966 
Q 3022 478 2636 193 
Q 2250 -91 1575 -91 
Q 1294 -91 989 -36 
Q 684 19 347 128 
L 347 722 
Q 666 556 975 473 
Q 1284 391 1588 391 
Q 1994 391 2212 530 
Q 2431 669 2431 922 
Q 2431 1156 2273 1281 
Q 2116 1406 1581 1522 
L 1381 1569 
Q 847 1681 609 1914 
Q 372 2147 372 2553 
Q 372 3047 722 3315 
Q 1072 3584 1716 3584 
Q 2034 3584 2315 3537 
Q 2597 3491 2834 3397 
z
" transform="scale(0.015625)"/>
       </defs>
       <use xlink:href="#DejaVuSans-63"/>
       <use xlink:href="#DejaVuSans-6c" x="54.980469"/>
       <use xlink:href="#DejaVuSans-6f" x="82.763672"/>
       <use xlink:href="#DejaVuSans-73" x="143.945312"/>
       <use xlink:href="#DejaVuSans-65" x="196.044922"/>
      </g>
     </g>
    </g>
    <g id="ytick_2">
     <g id="line2d_8">
      <g>
       <use xlink:href="#m58c22b6f17" x="161.33125" y="85.989034" style="stroke: #000000; stroke-width: 0.8"/>
      </g>
     </g>
     <g id="text_9">
      <!-- volume -->
      <g transform="translate(117.284375 89.788253) scale(0.1 -0.1)">
       <defs>
        <path id="DejaVuSans-76" d="M 191 3500 
L 800 3500 
L 1894 563 
L 2988 3500 
L 3597 3500 
L 2284 0 
L 1503 0 
L 191 3500 
z
" transform="scale(0.015625)"/>
        <path id="DejaVuSans-6d" d="M 3328 2828 
Q 3544 3216 3844 3400 
Q 4144 3584 4550 3584 
Q 5097 3584 5394 3201 
Q 5691 2819 5691 2113 
L 5691 0 
L 5113 0 
L 5113 2094 
Q 5113 2597 4934 2840 
Q 4756 3084 4391 3084 
Q 3944 3084 3684 2787 
Q 3425 2491 3425 1978 
L 3425 0 
L 2847 0 
L 2847 2094 
Q 2847 2600 2669 2842 
Q 2491 3084 2119 3084 
Q 1678 3084 1418 2786 
Q 1159 2488 1159 1978 
L 1159 0 
L 581 0 
L 581 3500 
L 1159 3500 
L 1159 2956 
Q 1356 3278 1631 3431 
Q 1906 3584 2284 3584 
Q 2666 3584 2933 3390 
Q 3200 3197 3328 2828 
z
" transform="scale(0.015625)"/>
       </defs>
       <use xlink:href="#DejaVuSans-76"/>
       <use xlink:href="#DejaVuSans-6f" x="59.179688"/>
       <use xlink:href="#DejaVuSans-6c" x="120.361328"/>
       <use xlink:href="#DejaVuSans-75" x="148.144531"/>
       <use xlink:href="#DejaVuSans-6d" x="211.523438"/>
       <use xlink:href="#DejaVuSans-65" x="308.935547"/>
      </g>
     </g>
    </g>
    <g id="ytick_3">
     <g id="line2d_9">
      <g>
       <use xlink:href="#m58c22b6f17" x="161.33125" y="119.677346" style="stroke: #000000; stroke-width: 0.8"/>
      </g>
     </g>
     <g id="text_10">
      <!-- close volume -->
      <g transform="translate(88.348437 123.476565) scale(0.1 -0.1)">
       <use xlink:href="#DejaVuSans-63"/>
       <use xlink:href="#DejaVuSans-6c" x="54.980469"/>
       <use xlink:href="#DejaVuSans-6f" x="82.763672"/>
       <use xlink:href="#DejaVuSans-73" x="143.945312"/>
       <use xlink:href="#DejaVuSans-65" x="196.044922"/>
       <use xlink:href="#DejaVuSans-20" x="257.568359"/>
       <use xlink:href="#DejaVuSans-76" x="289.355469"/>
       <use xlink:href="#DejaVuSans-6f" x="348.535156"/>
       <use xlink:href="#DejaVuSans-6c" x="409.716797"/>
       <use xlink:href="#DejaVuSans-75" x="437.5"/>
       <use xlink:href="#DejaVuSans-6d" x="500.878906"/>
       <use xlink:href="#DejaVuSans-65" x="598.291016"/>
      </g>
     </g>
    </g>
    <g id="ytick_4">
     <g id="line2d_10">
      <g>
       <use xlink:href="#m58c22b6f17" x="161.33125" y="153.365657" style="stroke: #000000; stroke-width: 0.8"/>
      </g>
     </g>
     <g id="text_11">
      <!-- volume volume_change_ratio -->
      <g transform="translate(7.2 157.164876) scale(0.1 -0.1)">
       <defs>
        <path id="DejaVuSans-5f" d="M 3263 -1063 
L 3263 -1509 
L -63 -1509 
L -63 -1063 
L 3263 -1063 
z
" transform="scale(0.015625)"/>
        <path id="DejaVuSans-68" d="M 3513 2113 
L 3513 0 
L 2938 0 
L 2938 2094 
Q 2938 2591 2744 2837 
Q 2550 3084 2163 3084 
Q 1697 3084 1428 2787 
Q 1159 2491 1159 1978 
L 1159 0 
L 581 0 
L 581 4863 
L 1159 4863 
L 1159 2956 
Q 1366 3272 1645 3428 
Q 1925 3584 2291 3584 
Q 2894 3584 3203 3211 
Q 3513 2838 3513 2113 
z
" transform="scale(0.015625)"/>
        <path id="DejaVuSans-67" d="M 2906 1791 
Q 2906 2416 2648 2759 
Q 2391 3103 1925 3103 
Q 1463 3103 1205 2759 
Q 947 2416 947 1791 
Q 947 1169 1205 825 
Q 1463 481 1925 481 
Q 2391 481 2648 825 
Q 2906 1169 2906 1791 
z
M 3481 434 
Q 3481 -459 3084 -895 
Q 2688 -1331 1869 -1331 
Q 1566 -1331 1297 -1286 
Q 1028 -1241 775 -1147 
L 775 -588 
Q 1028 -725 1275 -790 
Q 1522 -856 1778 -856 
Q 2344 -856 2625 -561 
Q 2906 -266 2906 331 
L 2906 616 
Q 2728 306 2450 153 
Q 2172 0 1784 0 
Q 1141 0 747 490 
Q 353 981 353 1791 
Q 353 2603 747 3093 
Q 1141 3584 1784 3584 
Q 2172 3584 2450 3431 
Q 2728 3278 2906 2969 
L 2906 3500 
L 3481 3500 
L 3481 434 
z
" transform="scale(0.015625)"/>
        <path id="DejaVuSans-72" d="M 2631 2963 
Q 2534 3019 2420 3045 
Q 2306 3072 2169 3072 
Q 1681 3072 1420 2755 
Q 1159 2438 1159 1844 
L 1159 0 
L 581 0 
L 581 3500 
L 1159 3500 
L 1159 2956 
Q 1341 3275 1631 3429 
Q 1922 3584 2338 3584 
Q 2397 3584 2469 3576 
Q 2541 3569 2628 3553 
L 2631 2963 
z
" transform="scale(0.015625)"/>
       </defs>
       <use xlink:href="#DejaVuSans-76"/>
       <use xlink:href="#DejaVuSans-6f" x="59.179688"/>
       <use xlink:href="#DejaVuSans-6c" x="120.361328"/>
       <use xlink:href="#DejaVuSans-75" x="148.144531"/>
       <use xlink:href="#DejaVuSans-6d" x="211.523438"/>
       <use xlink:href="#DejaVuSans-65" x="308.935547"/>
       <use xlink:href="#DejaVuSans-20" x="370.458984"/>
       <use xlink:href="#DejaVuSans-76" x="402.246094"/>
       <use xlink:href="#DejaVuSans-6f" x="461.425781"/>
       <use xlink:href="#DejaVuSans-6c" x="522.607422"/>
       <use xlink:href="#DejaVuSans-75" x="550.390625"/>
       <use xlink:href="#DejaVuSans-6d" x="613.769531"/>
       <use xlink:href="#DejaVuSans-65" x="711.181641"/>
       <use xlink:href="#DejaVuSans-5f" x="772.705078"/>
       <use xlink:href="#DejaVuSans-63" x="822.705078"/>
       <use xlink:href="#DejaVuSans-68" x="877.685547"/>
       <use xlink:href="#DejaVuSans-61" x="941.064453"/>
       <use xlink:href="#DejaVuSans-6e" x="1002.34375"/>
       <use xlink:href="#DejaVuSans-67" x="1065.722656"/>
       <use xlink:href="#DejaVuSans-65" x="1129.199219"/>
       <use xlink:href="#DejaVuSans-5f" x="1190.722656"/>
       <use xlink:href="#DejaVuSans-72" x="1240.722656"/>
       <use xlink:href="#DejaVuSans-61" x="1281.835938"/>
       <use xlink:href="#DejaVuSans-74" x="1343.115234"/>
       <use xlink:href="#DejaVuSans-69" x="1382.324219"/>
       <use xlink:href="#DejaVuSans-6f" x="1410.107422"/>
      </g>
     </g>
    </g>
    <g id="ytick_5">
     <g id="line2d_11">
      <g>
       <use xlink:href="#m58c22b6f17" x="161.33125" y="187.053969" style="stroke: #000000; stroke-width: 0.8"/>
      </g>
     </g>
     <g id="text_12">
      <!-- close price_momentum -->
      <g transform="translate(37.417187 190.853188) scale(0.1 -0.1)">
       <defs>
        <path id="DejaVuSans-70" d="M 1159 525 
L 1159 -1331 
L 581 -1331 
L 581 3500 
L 1159 3500 
L 1159 2969 
Q 1341 3281 1617 3432 
Q 1894 3584 2278 3584 
Q 2916 3584 3314 3078 
Q 3713 2572 3713 1747 
Q 3713 922 3314 415 
Q 2916 -91 2278 -91 
Q 1894 -91 1617 61 
Q 1341 213 1159 525 
z
M 3116 1747 
Q 3116 2381 2855 2742 
Q 2594 3103 2138 3103 
Q 1681 3103 1420 2742 
Q 1159 2381 1159 1747 
Q 1159 1113 1420 752 
Q 1681 391 2138 391 
Q 2594 391 2855 752 
Q 3116 1113 3116 1747 
z
" transform="scale(0.015625)"/>
       </defs>
       <use xlink:href="#DejaVuSans-63"/>
       <use xlink:href="#DejaVuSans-6c" x="54.980469"/>
       <use xlink:href="#DejaVuSans-6f" x="82.763672"/>
       <use xlink:href="#DejaVuSans-73" x="143.945312"/>
       <use xlink:href="#DejaVuSans-65" x="196.044922"/>
       <use xlink:href="#DejaVuSans-20" x="257.568359"/>
       <use xlink:href="#DejaVuSans-70" x="289.355469"/>
       <use xlink:href="#DejaVuSans-72" x="352.832031"/>
       <use xlink:href="#DejaVuSans-69" x="393.945312"/>
       <use xlink:href="#DejaVuSans-63" x="421.728516"/>
       <use xlink:href="#DejaVuSans-65" x="476.708984"/>
       <use xlink:href="#DejaVuSans-5f" x="538.232422"/>
       <use xlink:href="#DejaVuSans-6d" x="588.232422"/>
       <use xlink:href="#DejaVuSans-6f" x="685.644531"/>
       <use xlink:href="#DejaVuSans-6d" x="746.826172"/>
       <use xlink:href="#DejaVuSans-65" x="844.238281"/>
       <use xlink:href="#DejaVuSans-6e" x="905.761719"/>
       <use xlink:href="#DejaVuSans-74" x="969.140625"/>
       <use xlink:href="#DejaVuSans-75" x="1008.349609"/>
       <use xlink:href="#DejaVuSans-6d" x="1071.728516"/>
      </g>
     </g>
    </g>
    <g id="ytick_6">
     <g id="line2d_12">
      <g>
       <use xlink:href="#m58c22b6f17" x="161.33125" y="220.742281" style="stroke: #000000; stroke-width: 0.8"/>
      </g>
     </g>
     <g id="text_13">
      <!-- volume price_momentum -->
      <g transform="translate(26.128125 224.5415) scale(0.1 -0.1)">
       <use xlink:href="#DejaVuSans-76"/>
       <use xlink:href="#DejaVuSans-6f" x="59.179688"/>
       <use xlink:href="#DejaVuSans-6c" x="120.361328"/>
       <use xlink:href="#DejaVuSans-75" x="148.144531"/>
       <use xlink:href="#DejaVuSans-6d" x="211.523438"/>
       <use xlink:href="#DejaVuSans-65" x="308.935547"/>
       <use xlink:href="#DejaVuSans-20" x="370.458984"/>
       <use xlink:href="#DejaVuSans-70" x="402.246094"/>
       <use xlink:href="#DejaVuSans-72" x="465.722656"/>
       <use xlink:href="#DejaVuSans-69" x="506.835938"/>
       <use xlink:href="#DejaVuSans-63" x="534.619141"/>
       <use xlink:href="#DejaVuSans-65" x="589.599609"/>
       <use xlink:href="#DejaVuSans-5f" x="651.123047"/>
       <use xlink:href="#DejaVuSans-6d" x="701.123047"/>
       <use xlink:href="#DejaVuSans-6f" x="798.535156"/>
       <use xlink:href="#DejaVuSans-6d" x="859.716797"/>
       <use xlink:href="#DejaVuSans-65" x="957.128906"/>
       <use xlink:href="#DejaVuSans-6e" x="1018.652344"/>
       <use xlink:href="#DejaVuSans-74" x="1082.03125"/>
       <use xlink:href="#DejaVuSans-75" x="1121.240234"/>
       <use xlink:href="#DejaVuSans-6d" x="1184.619141"/>
      </g>
     </g>
    </g>
    <g id="ytick_7">
     <g id="line2d_13">
      <g>
       <use xlink:href="#m58c22b6f17" x="161.33125" y="254.430593" style="stroke: #000000; stroke-width: 0.8"/>
      </g>
     </g>
     <g id="text_14">
      <!-- price_momentum -->
      <g transform="translate(66.353125 258.229811) scale(0.1 -0.1)">
       <use xlink:href="#DejaVuSans-70"/>
       <use xlink:href="#DejaVuSans-72" x="63.476562"/>
       <use xlink:href="#DejaVuSans-69" x="104.589844"/>
       <use xlink:href="#DejaVuSans-63" x="132.373047"/>
       <use xlink:href="#DejaVuSans-65" x="187.353516"/>
       <use xlink:href="#DejaVuSans-5f" x="248.876953"/>
       <use xlink:href="#DejaVuSans-6d" x="298.876953"/>
       <use xlink:href="#DejaVuSans-6f" x="396.289062"/>
       <use xlink:href="#DejaVuSans-6d" x="457.470703"/>
       <use xlink:href="#DejaVuSans-65" x="554.882812"/>
       <use xlink:href="#DejaVuSans-6e" x="616.40625"/>
       <use xlink:href="#DejaVuSans-74" x="679.785156"/>
       <use xlink:href="#DejaVuSans-75" x="718.994141"/>
       <use xlink:href="#DejaVuSans-6d" x="782.373047"/>
      </g>
     </g>
    </g>
    <g id="ytick_8">
     <g id="line2d_14">
      <g>
       <use xlink:href="#m58c22b6f17" x="161.33125" y="288.118904" style="stroke: #000000; stroke-width: 0.8"/>
      </g>
     </g>
     <g id="text_15">
      <!-- volume_change_ratio -->
      <g transform="translate(47.425 291.918123) scale(0.1 -0.1)">
       <use xlink:href="#DejaVuSans-76"/>
       <use xlink:href="#DejaVuSans-6f" x="59.179688"/>
       <use xlink:href="#DejaVuSans-6c" x="120.361328"/>
       <use xlink:href="#DejaVuSans-75" x="148.144531"/>
       <use xlink:href="#DejaVuSans-6d" x="211.523438"/>
       <use xlink:href="#DejaVuSans-65" x="308.935547"/>
       <use xlink:href="#DejaVuSans-5f" x="370.458984"/>
       <use xlink:href="#DejaVuSans-63" x="420.458984"/>
       <use xlink:href="#DejaVuSans-68" x="475.439453"/>
       <use xlink:href="#DejaVuSans-61" x="538.818359"/>
       <use xlink:href="#DejaVuSans-6e" x="600.097656"/>
       <use xlink:href="#DejaVuSans-67" x="663.476562"/>
       <use xlink:href="#DejaVuSans-65" x="726.953125"/>
       <use xlink:href="#DejaVuSans-5f" x="788.476562"/>
       <use xlink:href="#DejaVuSans-72" x="838.476562"/>
       <use xlink:href="#DejaVuSans-61" x="879.589844"/>
       <use xlink:href="#DejaVuSans-74" x="940.869141"/>
       <use xlink:href="#DejaVuSans-69" x="980.078125"/>
       <use xlink:href="#DejaVuSans-6f" x="1007.861328"/>
      </g>
     </g>
    </g>
    <g id="ytick_9">
     <g id="line2d_15">
      <g>
       <use xlink:href="#m58c22b6f17" x="161.33125" y="321.807216" style="stroke: #000000; stroke-width: 0.8"/>
      </g>
     </g>
     <g id="text_16">
      <!-- close volume_change_ratio -->
      <g transform="translate(18.489062 325.606435) scale(0.1 -0.1)">
       <use xlink:href="#DejaVuSans-63"/>
       <use xlink:href="#DejaVuSans-6c" x="54.980469"/>
       <use xlink:href="#DejaVuSans-6f" x="82.763672"/>
       <use xlink:href="#DejaVuSans-73" x="143.945312"/>
       <use xlink:href="#DejaVuSans-65" x="196.044922"/>
       <use xlink:href="#DejaVuSans-20" x="257.568359"/>
       <use xlink:href="#DejaVuSans-76" x="289.355469"/>
       <use xlink:href="#DejaVuSans-6f" x="348.535156"/>
       <use xlink:href="#DejaVuSans-6c" x="409.716797"/>
       <use xlink:href="#DejaVuSans-75" x="437.5"/>
       <use xlink:href="#DejaVuSans-6d" x="500.878906"/>
       <use xlink:href="#DejaVuSans-65" x="598.291016"/>
       <use xlink:href="#DejaVuSans-5f" x="659.814453"/>
       <use xlink:href="#DejaVuSans-63" x="709.814453"/>
       <use xlink:href="#DejaVuSans-68" x="764.794922"/>
       <use xlink:href="#DejaVuSans-61" x="828.173828"/>
       <use xlink:href="#DejaVuSans-6e" x="889.453125"/>
       <use xlink:href="#DejaVuSans-67" x="952.832031"/>
       <use xlink:href="#DejaVuSans-65" x="1016.308594"/>
       <use xlink:href="#DejaVuSans-5f" x="1077.832031"/>
       <use xlink:href="#DejaVuSans-72" x="1127.832031"/>
       <use xlink:href="#DejaVuSans-61" x="1168.945312"/>
       <use xlink:href="#DejaVuSans-74" x="1230.224609"/>
       <use xlink:href="#DejaVuSans-69" x="1269.433594"/>
       <use xlink:href="#DejaVuSans-6f" x="1297.216797"/>
      </g>
     </g>
    </g>
    <g id="ytick_10">
     <g id="line2d_16">
      <g>
       <use xlink:href="#m58c22b6f17" x="161.33125" y="355.495528" style="stroke: #000000; stroke-width: 0.8"/>
      </g>
     </g>
     <g id="text_17">
      <!-- price_volume_interaction -->
      <g transform="translate(28.314062 359.294746) scale(0.1 -0.1)">
       <use xlink:href="#DejaVuSans-70"/>
       <use xlink:href="#DejaVuSans-72" x="63.476562"/>
       <use xlink:href="#DejaVuSans-69" x="104.589844"/>
       <use xlink:href="#DejaVuSans-63" x="132.373047"/>
       <use xlink:href="#DejaVuSans-65" x="187.353516"/>
       <use xlink:href="#DejaVuSans-5f" x="248.876953"/>
       <use xlink:href="#DejaVuSans-76" x="298.876953"/>
       <use xlink:href="#DejaVuSans-6f" x="358.056641"/>
       <use xlink:href="#DejaVuSans-6c" x="419.238281"/>
       <use xlink:href="#DejaVuSans-75" x="447.021484"/>
       <use xlink:href="#DejaVuSans-6d" x="510.400391"/>
       <use xlink:href="#DejaVuSans-65" x="607.8125"/>
       <use xlink:href="#DejaVuSans-5f" x="669.335938"/>
       <use xlink:href="#DejaVuSans-69" x="719.335938"/>
       <use xlink:href="#DejaVuSans-6e" x="747.119141"/>
       <use xlink:href="#DejaVuSans-74" x="810.498047"/>
       <use xlink:href="#DejaVuSans-65" x="849.707031"/>
       <use xlink:href="#DejaVuSans-72" x="911.230469"/>
       <use xlink:href="#DejaVuSans-61" x="952.34375"/>
       <use xlink:href="#DejaVuSans-63" x="1013.623047"/>
       <use xlink:href="#DejaVuSans-74" x="1068.603516"/>
       <use xlink:href="#DejaVuSans-69" x="1107.8125"/>
       <use xlink:href="#DejaVuSans-6f" x="1135.595703"/>
       <use xlink:href="#DejaVuSans-6e" x="1196.777344"/>
      </g>
     </g>
    </g>
   </g>
   <g id="line2d_17">
    <path d="M 187.677681 385.478125 
L 187.677681 22.318125 
" clip-path="url(#pba0e21379d)" style="fill: none; stroke: #000000; stroke-opacity: 0.3; stroke-width: 1.5; stroke-linecap: square"/>
   </g>
   <g id="patch_13">
    <path d="M 161.33125 385.478125 
L 161.33125 22.318125 
" style="fill: none; stroke: #000000; stroke-width: 0.8; stroke-linejoin: miter; stroke-linecap: square"/>
   </g>
   <g id="patch_14">
    <path d="M 705.49125 385.478125 
L 705.49125 22.318125 
" style="fill: none; stroke: #000000; stroke-width: 0.8; stroke-linejoin: miter; stroke-linecap: square"/>
   </g>
   <g id="patch_15">
    <path d="M 161.33125 385.478125 
L 705.49125 385.478125 
" style="fill: none; stroke: #000000; stroke-width: 0.8; stroke-linejoin: miter; stroke-linecap: square"/>
   </g>
   <g id="patch_16">
    <path d="M 161.33125 22.318125 
L 705.49125 22.318125 
" style="fill: none; stroke: #000000; stroke-width: 0.8; stroke-linejoin: miter; stroke-linecap: square"/>
   </g>
   <g id="text_18">
    <!-- Top 10 Feature Coefficients - Linear Regression -->
    <g transform="translate(292.532187 16.318125) scale(0.12 -0.12)">
     <defs>
      <path id="DejaVuSans-54" d="M -19 4666 
L 3928 4666 
L 3928 4134 
L 2272 4134 
L 2272 0 
L 1638 0 
L 1638 4134 
L -19 4134 
L -19 4666 
z
" transform="scale(0.015625)"/>
      <path id="DejaVuSans-46" d="M 628 4666 
L 3309 4666 
L 3309 4134 
L 1259 4134 
L 1259 2759 
L 3109 2759 
L 3109 2228 
L 1259 2228 
L 1259 0 
L 628 0 
L 628 4666 
z
" transform="scale(0.015625)"/>
      <path id="DejaVuSans-2d" d="M 313 2009 
L 1997 2009 
L 1997 1497 
L 313 1497 
L 313 2009 
z
" transform="scale(0.015625)"/>
      <path id="DejaVuSans-4c" d="M 628 4666 
L 1259 4666 
L 1259 531 
L 3531 531 
L 3531 0 
L 628 0 
L 628 4666 
z
" transform="scale(0.015625)"/>
      <path id="DejaVuSans-52" d="M 2841 2188 
Q 3044 2119 3236 1894 
Q 3428 1669 3622 1275 
L 4263 0 
L 3584 0 
L 2988 1197 
Q 2756 1666 2539 1819 
Q 2322 1972 1947 1972 
L 1259 1972 
L 1259 0 
L 628 0 
L 628 4666 
L 2053 4666 
Q 2853 4666 3247 4331 
Q 3641 3997 3641 3322 
Q 3641 2881 3436 2590 
Q 3231 2300 2841 2188 
z
M 1259 4147 
L 1259 2491 
L 2053 2491 
Q 2509 2491 2742 2702 
Q 2975 2913 2975 3322 
Q 2975 3731 2742 3939 
Q 2509 4147 2053 4147 
L 1259 4147 
z
" transform="scale(0.015625)"/>
     </defs>
     <use xlink:href="#DejaVuSans-54"/>
     <use xlink:href="#DejaVuSans-6f" x="44.083984"/>
     <use xlink:href="#DejaVuSans-70" x="105.265625"/>
     <use xlink:href="#DejaVuSans-20" x="168.742188"/>
     <use xlink:href="#DejaVuSans-31" x="200.529297"/>
     <use xlink:href="#DejaVuSans-30" x="264.152344"/>
     <use xlink:href="#DejaVuSans-20" x="327.775391"/>
     <use xlink:href="#DejaVuSans-46" x="359.5625"/>
     <use xlink:href="#DejaVuSans-65" x="411.582031"/>
     <use xlink:href="#DejaVuSans-61" x="473.105469"/>
     <use xlink:href="#DejaVuSans-74" x="534.384766"/>
     <use xlink:href="#DejaVuSans-75" x="573.59375"/>
     <use xlink:href="#DejaVuSans-72" x="636.972656"/>
     <use xlink:href="#DejaVuSans-65" x="675.835938"/>
     <use xlink:href="#DejaVuSans-20" x="737.359375"/>
     <use xlink:href="#DejaVuSans-43" x="769.146484"/>
     <use xlink:href="#DejaVuSans-6f" x="838.970703"/>
     <use xlink:href="#DejaVuSans-65" x="900.152344"/>
     <use xlink:href="#DejaVuSans-66" x="961.675781"/>
     <use xlink:href="#DejaVuSans-66" x="996.880859"/>
     <use xlink:href="#DejaVuSans-69" x="1032.085938"/>
     <use xlink:href="#DejaVuSans-63" x="1059.869141"/>
     <use xlink:href="#DejaVuSans-69" x="1114.849609"/>
     <use xlink:href="#DejaVuSans-65" x="1142.632812"/>
     <use xlink:href="#DejaVuSans-6e" x="1204.15625"/>
     <use xlink:href="#DejaVuSans-74" x="1267.535156"/>
     <use xlink:href="#DejaVuSans-73" x="1306.744141"/>
     <use xlink:href="#DejaVuSans-20" x="1358.84375"/>
     <use xlink:href="#DejaVuSans-2d" x="1390.630859"/>
     <use xlink:href="#DejaVuSans-20" x="1426.714844"/>
     <use xlink:href="#DejaVuSans-4c" x="1458.501953"/>
     <use xlink:href="#DejaVuSans-69" x="1514.214844"/>
     <use xlink:href="#DejaVuSans-6e" x="1541.998047"/>
     <use xlink:href="#DejaVuSans-65" x="1605.376953"/>
     <use xlink:href="#DejaVuSans-61" x="1666.900391"/>
     <use xlink:href="#DejaVuSans-72" x="1728.179688"/>
     <use xlink:href="#DejaVuSans-20" x="1769.292969"/>
     <use xlink:href="#DejaVuSans-52" x="1801.080078"/>
     <use xlink:href="#DejaVuSans-65" x="1866.0625"/>
     <use xlink:href="#DejaVuSans-67" x="1927.585938"/>
     <use xlink:href="#DejaVuSans-72" x="1991.0625"/>
     <use xlink:href="#DejaVuSans-65" x="2029.925781"/>
     <use xlink:href="#DejaVuSans-73" x="2091.449219"/>
     <use xlink:href="#DejaVuSans-73" x="2143.548828"/>
     <use xlink:href="#DejaVuSans-69" x="2195.648438"/>
     <use xlink:href="#DejaVuSans-6f" x="2223.431641"/>
     <use xlink:href="#DejaVuSans-6e" x="2284.613281"/>
    </g>
   </g>
  </g>
 </g>
 <defs>
  <clipPath id="pba0e21379d">
   <rect x="161.33125" y="22.318125" width="544.16" height="363.16"/>
  </clipPath>
 </defs>
</svg>
